# xmcd
#
# Track frame offsets:
#	150
#	14280
#	26210
#	37862
#	50380
#	62298
#	77135
#	89714
#	103107
#	116728
#	128072
#	143394
#	157892
#	173325
#	188812
#	203196
#	218417
#	233850
#	246624
#	260929
#	277071
#	291393
#	301992
#	314123
#
# Disc length: 4356 seconds
#
# Revision: 1
# Processed by: cddbd v1.5.2PL0 Copyright (c) Steve Scherf et al.
# Submitted via: audiograbber 1.83.01
#
DISCID=5c110218
DTITLE=Robert Nighthawk - Collection 1937-1952 CD1
DYEAR=2017
DGENRE=Blues
TTITLE0=Robert McCoy - Prowling Night Hawk
TTITLE1=Robert McCoy - Lonesome World
TTITLE2=Robert McCoy - Don't Mistreat Your Woman
TTITLE3=Robert McCoy - Sweet Pepper Mama
TTITLE4=Robert McCoy - G-Man
TTITLE5=Robert McCoy - Touch Luck
TTITLE6=Robert McCoy - Mean Black Cat
TTITLE7=Robert McCoy - I Have Spent My Bonus
TTITLE8=Robert McCoy - Mamie Lee
TTITLE9=Robert McCoy - Take It Easy Baby
TTITLE10=Robert McCoy - Brickyard
TTITLE11=Robert McCoy - My Friends Have Forsaken Me
TTITLE12=Robert McCoy - C. N. A.
TTITLE13=Ramblin' Bob - She's Got What It Takes
TTITLE14=Ramblin' Bob - Big Apple Blues
TTITLE15=Ramblin' Bob - Ol' Mose
TTITLE16=Ramblin' Bob - Every Day And Night
TTITLE17=Robert McCoy - Next Door Neighbor
TTITLE18=Robert McCoy - Good Gambling
TTITLE19=Robert McCoy - You're All I've Got To Live For
TTITLE20=Robert McCoy - Freight Train Blues
TTITLE21=Peetie's Boy and Ann Sortier - Gonna Keep It For My Daddy
TTITLE22=Peetie's Boy - Mamma Don't Allow Me To Stay Out All Night Long
TTITLE23=Peetie's Boy - Friar's Point Blues
EXTD=
EXTT0=
EXTT1=
EXTT2=
EXTT3=
EXTT4=
EXTT5=
EXTT6=
EXTT7=
EXTT8=
EXTT9=
EXTT10=
EXTT11=
EXTT12=
EXTT13=
EXTT14=
EXTT15=
EXTT16=
EXTT17=
EXTT18=
EXTT19=
EXTT20=
EXTT21=
EXTT22=
EXTT23=
PLAYORDER=
